<svg xmlns="http://www.w3.org/2000/svg" xmlns:xlink="http://www.w3.org/1999/xlink" width="135" zoomAndPan="magnify" viewBox="0 0 101.25 30.000001" height="40" preserveAspectRatio="xMidYMid meet" version="1.0"><defs><g/><clipPath id="b4e29135ec"><path d="M 4 8 L 27 8 L 27 16 L 4 16 Z M 4 8 " clip-rule="nonzero"/></clipPath><clipPath id="31a1f2d66e"><path d="M 13.828125 10.84375 L 4.730469 15.347656 L 21.03125 10.785156 C 24.292969 9.453125 26.765625 8.460938 26.765625 8.457031 C 25.230469 8.722656 19.257812 9.832031 13.828125 10.84375 Z M 13.828125 10.84375 " clip-rule="nonzero"/></clipPath><linearGradient x1="16.988715" gradientTransform="matrix(0.787077, 0, 0, 0.788018, 3.385728, 1.427962)" y1="20.066103" x2="14.428102" gradientUnits="userSpaceOnUse" y2="6.518355" id="50f4848bf3"><stop stop-opacity="1" stop-color="rgb(94.499207%, 38.798523%, 29.798889%)" offset="0"/><stop stop-opacity="1" stop-color="rgb(94.499207%, 38.798523%, 29.798889%)" offset="0.377082"/><stop stop-opacity="1" stop-color="rgb(94.499207%, 38.798523%, 29.798889%)" offset="0.5"/><stop stop-opacity="1" stop-color="rgb(94.499207%, 38.798523%, 29.798889%)" offset="0.515625"/><stop stop-opacity="1" stop-color="rgb(94.499207%, 38.798523%, 29.798889%)" offset="0.523438"/><stop stop-opacity="1" stop-color="rgb(93.97583%, 38.096619%, 29.917908%)" offset="0.527344"/><stop stop-opacity="1" stop-color="rgb(93.453979%, 37.39624%, 30.038452%)" offset="0.53125"/><stop stop-opacity="1" stop-color="rgb(92.849731%, 36.582947%, 30.175781%)" offset="0.535156"/><stop stop-opacity="1" stop-color="rgb(92.245483%, 35.771179%, 30.314636%)" offset="0.539062"/><stop stop-opacity="1" stop-color="rgb(91.639709%, 34.959412%, 30.451965%)" offset="0.542969"/><stop stop-opacity="1" stop-color="rgb(91.035461%, 34.147644%, 30.59082%)" offset="0.546875"/><stop stop-opacity="1" stop-color="rgb(90.228271%, 33.041382%, 30.728149%)" offset="0.550781"/><stop stop-opacity="1" stop-color="rgb(89.422607%, 31.93512%, 30.867004%)" offset="0.554688"/><stop stop-opacity="1" stop-color="rgb(88.609314%, 30.819702%, 31.005859%)" offset="0.558594"/><stop stop-opacity="1" stop-color="rgb(87.797546%, 29.705811%, 31.144714%)" offset="0.5625"/><stop stop-opacity="1" stop-color="rgb(86.984253%, 28.590393%, 31.282043%)" offset="0.566406"/><stop stop-opacity="1" stop-color="rgb(86.172485%, 27.476501%, 31.420898%)" offset="0.570313"/><stop stop-opacity="1" stop-color="rgb(85.360718%, 26.361084%, 31.558228%)" offset="0.574219"/><stop stop-opacity="1" stop-color="rgb(84.54895%, 25.245667%, 31.697083%)" offset="0.578125"/><stop stop-opacity="1" stop-color="rgb(83.735657%, 24.130249%, 31.834412%)" offset="0.582031"/><stop stop-opacity="1" stop-color="rgb(82.923889%, 23.016357%, 31.973267%)" offset="0.585938"/><stop stop-opacity="1" stop-color="rgb(82.090759%, 21.882629%, 32.112122%)" offset="0.589844"/><stop stop-opacity="1" stop-color="rgb(81.259155%, 20.748901%, 32.252502%)" offset="0.59375"/><stop stop-opacity="1" stop-color="rgb(80.337524%, 19.529724%, 32.394409%)" offset="0.597656"/><stop stop-opacity="1" stop-color="rgb(79.417419%, 18.312073%, 32.537842%)" offset="0.601562"/><stop stop-opacity="1" stop-color="rgb(78.497314%, 17.092896%, 32.679749%)" offset="0.605469"/><stop stop-opacity="1" stop-color="rgb(77.577209%, 15.873718%, 32.821655%)" offset="0.609375"/><stop stop-opacity="1" stop-color="rgb(76.657104%, 14.654541%, 32.963562%)" offset="0.613281"/><stop stop-opacity="1" stop-color="rgb(75.737%, 13.43689%, 33.106995%)" offset="0.617188"/><stop stop-opacity="1" stop-color="rgb(75.117493%, 12.617493%, 33.203125%)" offset="0.621094"/><stop stop-opacity="1" stop-color="rgb(74.499512%, 11.799622%, 33.299255%)" offset="0.625"/><stop stop-opacity="1" stop-color="rgb(74.499512%, 11.799622%, 33.299255%)" offset="0.75"/><stop stop-opacity="1" stop-color="rgb(74.499512%, 11.799622%, 33.299255%)" offset="1"/></linearGradient><clipPath id="2fcc967d23"><path d="M 5 16 L 31 16 L 31 26 L 5 26 Z M 5 16 " clip-rule="nonzero"/></clipPath><clipPath id="5c48f428f4"><path d="M 5.980469 20.445312 C 5.980469 20.445312 6.492188 22.519531 6.898438 24.1875 C 6.902344 24.1875 6.90625 24.1875 6.910156 24.1875 C 7.066406 24.699219 7.402344 25.132812 7.855469 25.414062 C 8.3125 25.695312 8.851562 25.796875 9.375 25.707031 C 9.382812 25.71875 30.144531 20.660156 30.144531 20.660156 L 29.082031 16.3125 Z M 5.980469 20.445312 " clip-rule="nonzero"/></clipPath><radialGradient gradientTransform="matrix(0.970595, -0.238506, 0.238221, 0.971756, 18.065137, 20.545747)" gradientUnits="userSpaceOnUse" r="8.548909" cx="0" id="bc6d214393" cy="0" fx="0" fy="0"><stop stop-opacity="1" stop-color="rgb(12.438965%, 75.639343%, 91.293335%)" offset="0"/><stop stop-opacity="1" stop-color="rgb(12.271118%, 75.479126%, 91.00647%)" offset="0.015625"/><stop stop-opacity="1" stop-color="rgb(12.057495%, 75.274658%, 90.640259%)" offset="0.0429688"/><stop stop-opacity="1" stop-color="rgb(11.843872%, 75.068665%, 90.274048%)" offset="0.0703125"/><stop stop-opacity="1" stop-color="rgb(11.630249%, 74.864197%, 89.907837%)" offset="0.0976562"/><stop stop-opacity="1" stop-color="rgb(11.418152%, 74.658203%, 89.541626%)" offset="0.125"/><stop stop-opacity="1" stop-color="rgb(11.219788%, 74.467468%, 89.201355%)" offset="0.152344"/><stop stop-opacity="1" stop-color="rgb(11.036682%, 74.291992%, 88.887024%)" offset="0.175781"/><stop stop-opacity="1" stop-color="rgb(10.853577%, 74.116516%, 88.572693%)" offset="0.199219"/><stop stop-opacity="1" stop-color="rgb(10.670471%, 73.94104%, 88.258362%)" offset="0.222656"/><stop stop-opacity="1" stop-color="rgb(10.488892%, 73.765564%, 87.944031%)" offset="0.246094"/><stop stop-opacity="1" stop-color="rgb(10.321045%, 73.603821%, 87.65564%)" offset="0.269531"/><stop stop-opacity="1" stop-color="rgb(10.168457%, 73.457336%, 87.394714%)" offset="0.289062"/><stop stop-opacity="1" stop-color="rgb(10.015869%, 73.310852%, 87.132263%)" offset="0.308594"/><stop stop-opacity="1" stop-color="rgb(9.863281%, 73.164368%, 86.871338%)" offset="0.328125"/><stop stop-opacity="1" stop-color="rgb(9.710693%, 73.017883%, 86.608887%)" offset="0.347656"/><stop stop-opacity="1" stop-color="rgb(9.559631%, 72.871399%, 86.347961%)" offset="0.367188"/><stop stop-opacity="1" stop-color="rgb(9.422302%, 72.740173%, 86.11145%)" offset="0.386719"/><stop stop-opacity="1" stop-color="rgb(9.300232%, 72.622681%, 85.902405%)" offset="0.402344"/><stop stop-opacity="1" stop-color="rgb(9.178162%, 72.505188%, 85.693359%)" offset="0.417969"/><stop stop-opacity="1" stop-color="rgb(9.056091%, 72.387695%, 85.484314%)" offset="0.433594"/><stop stop-opacity="1" stop-color="rgb(8.934021%, 72.270203%, 85.273743%)" offset="0.449219"/><stop stop-opacity="1" stop-color="rgb(8.811951%, 72.154236%, 85.064697%)" offset="0.464844"/><stop stop-opacity="1" stop-color="rgb(8.68988%, 72.036743%, 84.855652%)" offset="0.480469"/><stop stop-opacity="1" stop-color="rgb(8.569336%, 71.91925%, 84.646606%)" offset="0.496094"/><stop stop-opacity="1" stop-color="rgb(8.401489%, 71.759033%, 84.358215%)" offset="0.511719"/><stop stop-opacity="1" stop-color="rgb(8.187866%, 71.55304%, 83.992004%)" offset="0.539062"/><stop stop-opacity="1" stop-color="rgb(7.989502%, 71.362305%, 83.651733%)" offset="0.566406"/><stop stop-opacity="1" stop-color="rgb(7.806396%, 71.186829%, 83.338928%)" offset="0.589844"/><stop stop-opacity="1" stop-color="rgb(7.624817%, 71.011353%, 83.024597%)" offset="0.613281"/><stop stop-opacity="1" stop-color="rgb(7.45697%, 70.851135%, 82.736206%)" offset="0.636719"/><stop stop-opacity="1" stop-color="rgb(7.304382%, 70.704651%, 82.473755%)" offset="0.65625"/><stop stop-opacity="1" stop-color="rgb(7.151794%, 70.558167%, 82.21283%)" offset="0.675781"/><stop stop-opacity="1" stop-color="rgb(7.014465%, 70.425415%, 81.976318%)" offset="0.695312"/><stop stop-opacity="1" stop-color="rgb(6.892395%, 70.307922%, 81.767273%)" offset="0.710938"/><stop stop-opacity="1" stop-color="rgb(6.770325%, 70.19043%, 81.558228%)" offset="0.726562"/><stop stop-opacity="1" stop-color="rgb(6.64978%, 70.072937%, 81.349182%)" offset="0.742188"/><stop stop-opacity="1" stop-color="rgb(6.481934%, 69.91272%, 81.060791%)" offset="0.757812"/><stop stop-opacity="1" stop-color="rgb(6.283569%, 69.721985%, 80.72052%)" offset="0.785156"/><stop stop-opacity="1" stop-color="rgb(6.100464%, 69.546509%, 80.406189%)" offset="0.808594"/><stop stop-opacity="1" stop-color="rgb(5.932617%, 69.386292%, 80.119324%)" offset="0.832031"/><stop stop-opacity="1" stop-color="rgb(5.795288%, 69.25354%, 79.882812%)" offset="0.851562"/><stop stop-opacity="1" stop-color="rgb(5.674744%, 69.136047%, 79.673767%)" offset="0.867188"/><stop stop-opacity="1" stop-color="rgb(5.506897%, 68.97583%, 79.386902%)" offset="0.882812"/><stop stop-opacity="1" stop-color="rgb(5.323792%, 68.800354%, 79.072571%)" offset="0.910156"/><stop stop-opacity="1" stop-color="rgb(5.186462%, 68.667603%, 78.83606%)" offset="0.929688"/><stop stop-opacity="1" stop-color="rgb(5.018616%, 68.505859%, 78.549194%)" offset="0.945312"/><stop stop-opacity="1" stop-color="rgb(4.804993%, 68.301392%, 78.182983%)" offset="0.972656"/><stop stop-opacity="1" stop-color="rgb(4.699707%, 68.199158%, 77.999878%)" offset="1"/></radialGradient><clipPath id="9f525c1c4d"><path d="M 19 20 L 31 20 L 31 27 L 19 27 Z M 19 20 " clip-rule="nonzero"/></clipPath><clipPath id="671d35988e"><path d="M 19.898438 23.152344 L 19.828125 23.191406 L 19.667969 26.566406 C 19.667969 26.566406 29.335938 21.070312 30.09375 20.671875 C 29.546875 20.804688 24.742188 21.972656 19.898438 23.152344 Z M 19.898438 23.152344 " clip-rule="nonzero"/></clipPath><linearGradient x1="28.554136" gradientTransform="matrix(0.787077, 0, 0, 0.788018, 3.385728, 1.427962)" y1="33.219146" x2="26.0708" gradientUnits="userSpaceOnUse" y2="23.097557" id="4669a1dc86"><stop stop-opacity="1" stop-color="rgb(0.39978%, 55.699158%, 63.499451%)" offset="0"/><stop stop-opacity="1" stop-color="rgb(0.39978%, 55.699158%, 63.499451%)" offset="0.3029"/><stop stop-opacity="1" stop-color="rgb(0.39978%, 55.699158%, 63.499451%)" offset="0.5"/><stop stop-opacity="1" stop-color="rgb(0.39978%, 55.699158%, 63.499451%)" offset="0.53125"/><stop stop-opacity="1" stop-color="rgb(0.39978%, 55.555725%, 63.363647%)" offset="0.546875"/><stop stop-opacity="1" stop-color="rgb(0.39978%, 55.265808%, 63.092041%)" offset="0.554688"/><stop stop-opacity="1" stop-color="rgb(0.39978%, 54.972839%, 62.817383%)" offset="0.5625"/><stop stop-opacity="1" stop-color="rgb(0.39978%, 54.678345%, 62.542725%)" offset="0.570312"/><stop stop-opacity="1" stop-color="rgb(0.39978%, 54.385376%, 62.268066%)" offset="0.578125"/><stop stop-opacity="1" stop-color="rgb(0.434875%, 53.997803%, 61.84082%)" offset="0.582031"/><stop stop-opacity="1" stop-color="rgb(0.469971%, 53.75824%, 61.552429%)" offset="0.585937"/><stop stop-opacity="1" stop-color="rgb(0.537109%, 53.430176%, 61.123657%)" offset="0.589844"/><stop stop-opacity="1" stop-color="rgb(0.604248%, 53.103638%, 60.696411%)" offset="0.59375"/><stop stop-opacity="1" stop-color="rgb(0.671387%, 52.775574%, 60.267639%)" offset="0.597656"/><stop stop-opacity="1" stop-color="rgb(0.738525%, 52.449036%, 59.840393%)" offset="0.601562"/><stop stop-opacity="1" stop-color="rgb(0.805664%, 52.120972%, 59.411621%)" offset="0.605469"/><stop stop-opacity="1" stop-color="rgb(0.872803%, 51.792908%, 58.984375%)" offset="0.609375"/><stop stop-opacity="1" stop-color="rgb(0.939941%, 51.464844%, 58.555603%)" offset="0.613281"/><stop stop-opacity="1" stop-color="rgb(1.00708%, 51.138306%, 58.128357%)" offset="0.617188"/><stop stop-opacity="1" stop-color="rgb(1.074219%, 50.810242%, 57.699585%)" offset="0.621094"/><stop stop-opacity="1" stop-color="rgb(1.141357%, 50.483704%, 57.272339%)" offset="0.625"/><stop stop-opacity="1" stop-color="rgb(1.193237%, 50.027466%, 56.704712%)" offset="0.628906"/><stop stop-opacity="1" stop-color="rgb(1.245117%, 49.572754%, 56.137085%)" offset="0.632812"/><stop stop-opacity="1" stop-color="rgb(1.28479%, 49.01886%, 55.461121%)" offset="0.636719"/><stop stop-opacity="1" stop-color="rgb(1.325989%, 48.464966%, 54.786682%)" offset="0.640625"/><stop stop-opacity="1" stop-color="rgb(1.365662%, 47.911072%, 54.112244%)" offset="0.644531"/><stop stop-opacity="1" stop-color="rgb(1.405334%, 47.357178%, 53.437805%)" offset="0.648437"/><stop stop-opacity="1" stop-color="rgb(1.445007%, 46.803284%, 52.761841%)" offset="0.652344"/><stop stop-opacity="1" stop-color="rgb(1.486206%, 46.24939%, 52.087402%)" offset="0.65625"/><stop stop-opacity="1" stop-color="rgb(1.525879%, 45.695496%, 51.411438%)" offset="0.660156"/><stop stop-opacity="1" stop-color="rgb(1.567078%, 45.141602%, 50.737%)" offset="0.664062"/><stop stop-opacity="1" stop-color="rgb(1.582336%, 44.920349%, 50.468445%)" offset="0.667969"/><stop stop-opacity="1" stop-color="rgb(1.599121%, 44.699097%, 50.19989%)" offset="0.671875"/><stop stop-opacity="1" stop-color="rgb(1.599121%, 44.699097%, 50.19989%)" offset="0.6875"/><stop stop-opacity="1" stop-color="rgb(1.599121%, 44.699097%, 50.19989%)" offset="0.6971"/><stop stop-opacity="1" stop-color="rgb(1.599121%, 44.699097%, 50.19989%)" offset="0.75"/><stop stop-opacity="1" stop-color="rgb(1.599121%, 44.699097%, 50.19989%)" offset="1"/></linearGradient><clipPath id="4fdd51500d"><path d="M 4 9 L 29 9 L 29 20 L 4 20 Z M 4 9 " clip-rule="nonzero"/></clipPath><clipPath id="55b3d2b4b6"><path d="M 4.730469 15.347656 L 5.824219 19.8125 C 5.824219 19.8125 28.578125 14.261719 28.589844 14.308594 C 28.601562 14.359375 27.296875 9.027344 27.296875 9.027344 Z M 4.730469 15.347656 " clip-rule="nonzero"/></clipPath><linearGradient x1="32.764971" gradientTransform="matrix(0.787077, 0, 0, 0.788018, 3.385728, 1.427962)" y1="12.609678" x2="0.991688" gradientUnits="userSpaceOnUse" y2="20.408226" id="ea35918fb7"><stop stop-opacity="1" stop-color="rgb(99.198914%, 82.699585%, 3.49884%)" offset="0"/><stop stop-opacity="1" stop-color="rgb(99.198914%, 82.699585%, 3.49884%)" offset="0.0997037"/><stop stop-opacity="1" stop-color="rgb(99.198914%, 82.699585%, 3.49884%)" offset="0.125"/><stop stop-opacity="1" stop-color="rgb(99.183655%, 82.545471%, 3.555298%)" offset="0.1875"/><stop stop-opacity="1" stop-color="rgb(99.156189%, 82.247925%, 3.663635%)" offset="0.195312"/><stop stop-opacity="1" stop-color="rgb(99.130249%, 81.962585%, 3.767395%)" offset="0.203125"/><stop stop-opacity="1" stop-color="rgb(99.104309%, 81.677246%, 3.871155%)" offset="0.210938"/><stop stop-opacity="1" stop-color="rgb(99.076843%, 81.391907%, 3.974915%)" offset="0.21875"/><stop stop-opacity="1" stop-color="rgb(99.050903%, 81.108093%, 4.078674%)" offset="0.226562"/><stop stop-opacity="1" stop-color="rgb(99.023438%, 80.822754%, 4.182434%)" offset="0.234375"/><stop stop-opacity="1" stop-color="rgb(98.997498%, 80.537415%, 4.286194%)" offset="0.242187"/><stop stop-opacity="1" stop-color="rgb(98.971558%, 80.252075%, 4.389954%)" offset="0.25"/><stop stop-opacity="1" stop-color="rgb(98.944092%, 79.966736%, 4.493713%)" offset="0.257812"/><stop stop-opacity="1" stop-color="rgb(98.918152%, 79.681396%, 4.598999%)" offset="0.265625"/><stop stop-opacity="1" stop-color="rgb(98.890686%, 79.397583%, 4.702759%)" offset="0.273437"/><stop stop-opacity="1" stop-color="rgb(98.864746%, 79.112244%, 4.806519%)" offset="0.28125"/><stop stop-opacity="1" stop-color="rgb(98.838806%, 78.826904%, 4.910278%)" offset="0.289062"/><stop stop-opacity="1" stop-color="rgb(98.81134%, 78.541565%, 5.014038%)" offset="0.296875"/><stop stop-opacity="1" stop-color="rgb(98.7854%, 78.256226%, 5.117798%)" offset="0.304688"/><stop stop-opacity="1" stop-color="rgb(98.757935%, 77.972412%, 5.221558%)" offset="0.3125"/><stop stop-opacity="1" stop-color="rgb(98.731995%, 77.687073%, 5.325317%)" offset="0.320312"/><stop stop-opacity="1" stop-color="rgb(98.706055%, 77.401733%, 5.429077%)" offset="0.328125"/><stop stop-opacity="1" stop-color="rgb(98.678589%, 77.116394%, 5.532837%)" offset="0.335938"/><stop stop-opacity="1" stop-color="rgb(98.652649%, 76.831055%, 5.636597%)" offset="0.34375"/><stop stop-opacity="1" stop-color="rgb(98.625183%, 76.545715%, 5.740356%)" offset="0.351562"/><stop stop-opacity="1" stop-color="rgb(98.599243%, 76.261902%, 5.844116%)" offset="0.359375"/><stop stop-opacity="1" stop-color="rgb(98.573303%, 75.976562%, 5.949402%)" offset="0.367187"/><stop stop-opacity="1" stop-color="rgb(98.545837%, 75.691223%, 6.053162%)" offset="0.375"/><stop stop-opacity="1" stop-color="rgb(98.519897%, 75.405884%, 6.156921%)" offset="0.382812"/><stop stop-opacity="1" stop-color="rgb(98.492432%, 75.120544%, 6.260681%)" offset="0.390625"/><stop stop-opacity="1" stop-color="rgb(98.466492%, 74.835205%, 6.364441%)" offset="0.398437"/><stop stop-opacity="1" stop-color="rgb(98.440552%, 74.551392%, 6.468201%)" offset="0.40625"/><stop stop-opacity="1" stop-color="rgb(98.413086%, 74.266052%, 6.57196%)" offset="0.414062"/><stop stop-opacity="1" stop-color="rgb(98.387146%, 73.980713%, 6.67572%)" offset="0.421875"/><stop stop-opacity="1" stop-color="rgb(98.361206%, 73.695374%, 6.77948%)" offset="0.429687"/><stop stop-opacity="1" stop-color="rgb(98.33374%, 73.410034%, 6.88324%)" offset="0.4375"/><stop stop-opacity="1" stop-color="rgb(98.3078%, 73.126221%, 6.987%)" offset="0.445312"/><stop stop-opacity="1" stop-color="rgb(98.280334%, 72.840881%, 7.090759%)" offset="0.453125"/><stop stop-opacity="1" stop-color="rgb(98.254395%, 72.555542%, 7.194519%)" offset="0.460937"/><stop stop-opacity="1" stop-color="rgb(98.228455%, 72.270203%, 7.298279%)" offset="0.46875"/><stop stop-opacity="1" stop-color="rgb(98.200989%, 71.984863%, 7.403564%)" offset="0.476563"/><stop stop-opacity="1" stop-color="rgb(98.175049%, 71.699524%, 7.507324%)" offset="0.484375"/><stop stop-opacity="1" stop-color="rgb(98.147583%, 71.41571%, 7.611084%)" offset="0.492187"/><stop stop-opacity="1" stop-color="rgb(98.121643%, 71.130371%, 7.714844%)" offset="0.5"/><stop stop-opacity="1" stop-color="rgb(98.095703%, 70.845032%, 7.818604%)" offset="0.507812"/><stop stop-opacity="1" stop-color="rgb(98.068237%, 70.559692%, 7.922363%)" offset="0.515625"/><stop stop-opacity="1" stop-color="rgb(98.042297%, 70.274353%, 8.026123%)" offset="0.523437"/><stop stop-opacity="1" stop-color="rgb(98.014832%, 69.989014%, 8.129883%)" offset="0.53125"/><stop stop-opacity="1" stop-color="rgb(97.988892%, 69.7052%, 8.233643%)" offset="0.539062"/><stop stop-opacity="1" stop-color="rgb(97.962952%, 69.419861%, 8.337402%)" offset="0.546875"/><stop stop-opacity="1" stop-color="rgb(97.935486%, 69.134521%, 8.441162%)" offset="0.554687"/><stop stop-opacity="1" stop-color="rgb(97.909546%, 68.849182%, 8.544922%)" offset="0.5625"/><stop stop-opacity="1" stop-color="rgb(97.88208%, 68.563843%, 8.648682%)" offset="0.570312"/><stop stop-opacity="1" stop-color="rgb(97.85614%, 68.280029%, 8.752441%)" offset="0.578125"/><stop stop-opacity="1" stop-color="rgb(97.8302%, 67.99469%, 8.857727%)" offset="0.585937"/><stop stop-opacity="1" stop-color="rgb(97.802734%, 67.709351%, 8.961487%)" offset="0.59375"/><stop stop-opacity="1" stop-color="rgb(97.776794%, 67.424011%, 9.065247%)" offset="0.601562"/><stop stop-opacity="1" stop-color="rgb(97.749329%, 67.138672%, 9.169006%)" offset="0.609375"/><stop stop-opacity="1" stop-color="rgb(97.723389%, 66.853333%, 9.272766%)" offset="0.617187"/><stop stop-opacity="1" stop-color="rgb(97.697449%, 66.569519%, 9.376526%)" offset="0.625"/><stop stop-opacity="1" stop-color="rgb(97.669983%, 66.28418%, 9.480286%)" offset="0.632812"/><stop stop-opacity="1" stop-color="rgb(97.644043%, 65.99884%, 9.584045%)" offset="0.640625"/><stop stop-opacity="1" stop-color="rgb(97.616577%, 65.713501%, 9.687805%)" offset="0.648437"/><stop stop-opacity="1" stop-color="rgb(97.590637%, 65.428162%, 9.791565%)" offset="0.65625"/><stop stop-opacity="1" stop-color="rgb(97.564697%, 65.144348%, 9.895325%)" offset="0.664062"/><stop stop-opacity="1" stop-color="rgb(97.537231%, 64.859009%, 9.999084%)" offset="0.671875"/><stop stop-opacity="1" stop-color="rgb(97.511292%, 64.573669%, 10.102844%)" offset="0.679687"/><stop stop-opacity="1" stop-color="rgb(97.483826%, 64.28833%, 10.206604%)" offset="0.6875"/><stop stop-opacity="1" stop-color="rgb(97.457886%, 64.002991%, 10.31189%)" offset="0.695312"/><stop stop-opacity="1" stop-color="rgb(97.431946%, 63.717651%, 10.415649%)" offset="0.703125"/><stop stop-opacity="1" stop-color="rgb(97.40448%, 63.433838%, 10.519409%)" offset="0.710938"/><stop stop-opacity="1" stop-color="rgb(97.37854%, 63.148499%, 10.623169%)" offset="0.71875"/><stop stop-opacity="1" stop-color="rgb(97.351074%, 62.863159%, 10.726929%)" offset="0.726562"/><stop stop-opacity="1" stop-color="rgb(97.325134%, 62.57782%, 10.830688%)" offset="0.734375"/><stop stop-opacity="1" stop-color="rgb(97.299194%, 62.29248%, 10.934448%)" offset="0.742187"/><stop stop-opacity="1" stop-color="rgb(97.271729%, 62.007141%, 11.038208%)" offset="0.75"/><stop stop-opacity="1" stop-color="rgb(97.245789%, 61.723328%, 11.141968%)" offset="0.757812"/><stop stop-opacity="1" stop-color="rgb(97.218323%, 61.437988%, 11.245728%)" offset="0.765625"/><stop stop-opacity="1" stop-color="rgb(97.192383%, 61.152649%, 11.349487%)" offset="0.773437"/><stop stop-opacity="1" stop-color="rgb(97.166443%, 60.86731%, 11.453247%)" offset="0.78125"/><stop stop-opacity="1" stop-color="rgb(97.138977%, 60.58197%, 11.557007%)" offset="0.789062"/><stop stop-opacity="1" stop-color="rgb(97.113037%, 60.298157%, 11.662292%)" offset="0.796875"/><stop stop-opacity="1" stop-color="rgb(97.085571%, 60.012817%, 11.766052%)" offset="0.804687"/><stop stop-opacity="1" stop-color="rgb(97.059631%, 59.727478%, 11.869812%)" offset="0.8125"/><stop stop-opacity="1" stop-color="rgb(97.033691%, 59.442139%, 11.973572%)" offset="0.820312"/><stop stop-opacity="1" stop-color="rgb(97.006226%, 59.156799%, 12.077332%)" offset="0.828125"/><stop stop-opacity="1" stop-color="rgb(96.980286%, 58.87146%, 12.181091%)" offset="0.835937"/><stop stop-opacity="1" stop-color="rgb(96.95282%, 58.587646%, 12.284851%)" offset="0.84375"/><stop stop-opacity="1" stop-color="rgb(96.92688%, 58.302307%, 12.388611%)" offset="0.851562"/><stop stop-opacity="1" stop-color="rgb(96.907043%, 58.079529%, 12.469482%)" offset="0.859375"/><stop stop-opacity="1" stop-color="rgb(96.899414%, 57.998657%, 12.5%)" offset="0.875"/><stop stop-opacity="1" stop-color="rgb(96.899414%, 57.998657%, 12.5%)" offset="0.900296"/><stop stop-opacity="1" stop-color="rgb(96.899414%, 57.998657%, 12.5%)" offset="1"/></linearGradient><clipPath id="3fabed2267"><path d="M 5 14 L 29 14 L 29 21 L 5 21 Z M 5 14 " clip-rule="nonzero"/></clipPath><clipPath id="7c63daf58f"><path d="M 5.980469 20.445312 L 22.65625 17.460938 C 26.015625 15.671875 28.585938 14.304688 28.589844 14.3125 C 28.582031 14.273438 17.1875 17.042969 10.523438 18.667969 Z M 5.980469 20.445312 " clip-rule="nonzero"/></clipPath><linearGradient x1="19.144638" gradientTransform="matrix(0.787077, 0, 0, 0.788018, 3.385728, 1.427962)" y1="26.969706" x2="16.171502" gradientUnits="userSpaceOnUse" y2="13.468142" id="5cd9374eb9"><stop stop-opacity="1" stop-color="rgb(100%, 86.698914%, 5.899048%)" offset="0"/><stop stop-opacity="1" stop-color="rgb(100%, 86.698914%, 5.899048%)" offset="0.25"/><stop stop-opacity="1" stop-color="rgb(100%, 86.698914%, 5.899048%)" offset="0.375"/><stop stop-opacity="1" stop-color="rgb(99.949646%, 86.599731%, 5.923462%)" offset="0.390625"/><stop stop-opacity="1" stop-color="rgb(99.790955%, 86.282349%, 6.002808%)" offset="0.394531"/><stop stop-opacity="1" stop-color="rgb(99.681091%, 86.062622%, 6.059265%)" offset="0.398438"/><stop stop-opacity="1" stop-color="rgb(99.571228%, 85.84137%, 6.114197%)" offset="0.402344"/><stop stop-opacity="1" stop-color="rgb(99.461365%, 85.621643%, 6.169128%)" offset="0.40625"/><stop stop-opacity="1" stop-color="rgb(99.349976%, 85.401917%, 6.22406%)" offset="0.410156"/><stop stop-opacity="1" stop-color="rgb(99.240112%, 85.18219%, 6.278992%)" offset="0.414062"/><stop stop-opacity="1" stop-color="rgb(98.988342%, 84.519958%, 6.434631%)" offset="0.417969"/><stop stop-opacity="1" stop-color="rgb(98.736572%, 83.857727%, 6.591797%)" offset="0.421875"/><stop stop-opacity="1" stop-color="rgb(98.451233%, 83.091736%, 6.771851%)" offset="0.425781"/><stop stop-opacity="1" stop-color="rgb(98.167419%, 82.327271%, 6.951904%)" offset="0.429688"/><stop stop-opacity="1" stop-color="rgb(97.88208%, 81.562805%, 7.130432%)" offset="0.433594"/><stop stop-opacity="1" stop-color="rgb(97.596741%, 80.79834%, 7.310486%)" offset="0.4375"/><stop stop-opacity="1" stop-color="rgb(97.229004%, 79.876709%, 7.519531%)" offset="0.441406"/><stop stop-opacity="1" stop-color="rgb(96.862793%, 78.956604%, 7.730103%)" offset="0.445312"/><stop stop-opacity="1" stop-color="rgb(96.405029%, 77.865601%, 7.971191%)" offset="0.449219"/><stop stop-opacity="1" stop-color="rgb(95.948792%, 76.774597%, 8.21228%)" offset="0.453125"/><stop stop-opacity="1" stop-color="rgb(95.491028%, 75.682068%, 8.453369%)" offset="0.457031"/><stop stop-opacity="1" stop-color="rgb(95.03479%, 74.591064%, 8.694458%)" offset="0.460938"/><stop stop-opacity="1" stop-color="rgb(94.578552%, 73.500061%, 8.935547%)" offset="0.464844"/><stop stop-opacity="1" stop-color="rgb(94.122314%, 72.409058%, 9.176636%)" offset="0.46875"/><stop stop-opacity="1" stop-color="rgb(93.562317%, 71.061707%, 9.494019%)" offset="0.472656"/><stop stop-opacity="1" stop-color="rgb(93.003845%, 69.714355%, 9.812927%)" offset="0.476562"/><stop stop-opacity="1" stop-color="rgb(92.358398%, 68.147278%, 10.197449%)" offset="0.480469"/><stop stop-opacity="1" stop-color="rgb(91.712952%, 66.5802%, 10.583496%)" offset="0.484375"/><stop stop-opacity="1" stop-color="rgb(91.065979%, 65.013123%, 10.968018%)" offset="0.488281"/><stop stop-opacity="1" stop-color="rgb(90.420532%, 63.446045%, 11.352539%)" offset="0.492188"/><stop stop-opacity="1" stop-color="rgb(89.77356%, 61.877441%, 11.737061%)" offset="0.496094"/><stop stop-opacity="1" stop-color="rgb(89.128113%, 60.310364%, 12.123108%)" offset="0.5"/><stop stop-opacity="1" stop-color="rgb(88.343811%, 58.451843%, 12.561035%)" offset="0.503906"/><stop stop-opacity="1" stop-color="rgb(87.559509%, 56.593323%, 12.998962%)" offset="0.507812"/><stop stop-opacity="1" stop-color="rgb(86.759949%, 54.702759%, 13.442993%)" offset="0.511719"/><stop stop-opacity="1" stop-color="rgb(85.960388%, 52.812195%, 13.887024%)" offset="0.515625"/><stop stop-opacity="1" stop-color="rgb(85.160828%, 50.921631%, 14.331055%)" offset="0.519531"/><stop stop-opacity="1" stop-color="rgb(84.361267%, 49.031067%, 14.775085%)" offset="0.523438"/><stop stop-opacity="1" stop-color="rgb(83.561707%, 47.138977%, 15.219116%)" offset="0.527344"/><stop stop-opacity="1" stop-color="rgb(82.762146%, 45.248413%, 15.664673%)" offset="0.53125"/><stop stop-opacity="1" stop-color="rgb(82.730103%, 45.173645%, 15.681458%)" offset="0.553161"/><stop stop-opacity="1" stop-color="rgb(82.699585%, 45.098877%, 15.699768%)" offset="0.5625"/><stop stop-opacity="1" stop-color="rgb(82.699585%, 45.098877%, 15.699768%)" offset="0.625"/><stop stop-opacity="1" stop-color="rgb(82.699585%, 45.098877%, 15.699768%)" offset="0.75"/><stop stop-opacity="1" stop-color="rgb(82.699585%, 45.098877%, 15.699768%)" offset="1"/></linearGradient><clipPath id="6320f1ed3f"><path d="M 3.167969 1.429688 L 28 1.429688 L 28 13 L 3.167969 13 Z M 3.167969 1.429688 " clip-rule="nonzero"/></clipPath><clipPath id="2671192256"><path d="M 26.160156 4.433594 C 25.847656 3.347656 24.933594 2.582031 23.652344 2.894531 L 19.441406 3.933594 C 19.578125 4.210938 19.695312 4.496094 19.785156 4.792969 C 19.863281 4.875 19.921875 4.976562 19.949219 5.085938 C 19.972656 5.171875 19.976562 5.265625 19.960938 5.355469 C 19.949219 5.445312 19.917969 5.535156 19.867188 5.613281 C 19.820312 5.691406 19.757812 5.757812 19.6875 5.8125 C 19.613281 5.867188 19.527344 5.90625 19.441406 5.929688 C 19.351562 5.953125 19.257812 5.957031 19.167969 5.941406 C 19.078125 5.929688 18.988281 5.898438 18.910156 5.851562 C 18.832031 5.804688 18.765625 5.742188 18.710938 5.667969 C 18.65625 5.59375 18.617188 5.507812 18.59375 5.421875 C 18.5625 5.285156 18.574219 5.144531 18.625 5.015625 C 18.660156 5.125 18.695312 5.238281 18.722656 5.351562 L 19.625 5.128906 C 19.285156 3.867188 18.464844 2.789062 17.339844 2.121094 C 16.214844 1.457031 14.875 1.261719 13.605469 1.574219 C 12.339844 1.882812 11.242188 2.679688 10.550781 3.792969 C 9.863281 4.902344 9.636719 6.238281 9.917969 7.515625 L 10.683594 7.328125 C 10.683594 7.335938 10.683594 7.347656 10.691406 7.359375 L 10.683594 7.359375 C 10.714844 7.480469 10.714844 7.605469 10.679688 7.726562 C 10.644531 7.847656 10.578125 7.957031 10.488281 8.042969 C 10.398438 8.128906 10.285156 8.1875 10.164062 8.214844 C 10.042969 8.242188 9.914062 8.238281 9.796875 8.199219 C 9.675781 8.160156 9.570312 8.089844 9.488281 7.996094 C 9.40625 7.902344 9.347656 7.789062 9.324219 7.667969 C 9.300781 7.546875 9.308594 7.417969 9.351562 7.300781 C 9.394531 7.183594 9.464844 7.078125 9.5625 7 C 9.535156 6.789062 9.523438 6.578125 9.523438 6.367188 L 5.042969 7.46875 C 5.042969 7.46875 5.042969 7.46875 5.042969 7.472656 L 5.035156 7.472656 C 4.484375 7.609375 4.011719 7.957031 3.710938 8.4375 C 3.410156 8.921875 3.3125 9.503906 3.4375 10.058594 L 3.433594 10.058594 L 4.074219 12.667969 C 4.074219 12.667969 27.128906 8.347656 27.144531 8.402344 L 26.167969 4.429688 Z M 13.84375 2.390625 C 14.679688 2.1875 15.558594 2.253906 16.351562 2.582031 C 17.144531 2.914062 17.8125 3.488281 18.257812 4.222656 L 10.78125 6.0625 C 10.835938 5.203125 11.160156 4.382812 11.710938 3.722656 C 12.261719 3.0625 13.011719 2.597656 13.84375 2.390625 Z M 13.84375 2.390625 " clip-rule="nonzero"/></clipPath><radialGradient gradientTransform="matrix(0.970595, -0.238506, 0.238222, 0.971756, 14.582408, 6.345579)" gradientUnits="userSpaceOnUse" r="9.002693" cx="0" id="0a2a01e2f8" cy="0" fx="0" fy="0"><stop stop-opacity="1" stop-color="rgb(92.788696%, 23.075867%, 52.838135%)" offset="0"/><stop stop-opacity="1" stop-color="rgb(92.584229%, 23.031616%, 52.723694%)" offset="0.03125"/><stop stop-opacity="1" stop-color="rgb(92.393494%, 22.990417%, 52.616882%)" offset="0.0585938"/><stop stop-opacity="1" stop-color="rgb(92.105103%, 22.929382%, 52.456665%)" offset="0.0859375"/><stop stop-opacity="1" stop-color="rgb(91.73584%, 22.850037%, 52.252197%)" offset="0.140625"/><stop stop-opacity="1" stop-color="rgb(91.394043%, 22.776794%, 52.061462%)" offset="0.191406"/><stop stop-opacity="1" stop-color="rgb(91.065979%, 22.706604%, 51.878357%)" offset="0.238281"/><stop stop-opacity="1" stop-color="rgb(90.751648%, 22.639465%, 51.702881%)" offset="0.285156"/><stop stop-opacity="1" stop-color="rgb(90.464783%, 22.576904%, 51.542664%)" offset="0.328125"/><stop stop-opacity="1" stop-color="rgb(90.19165%, 22.518921%, 51.391602%)" offset="0.367188"/><stop stop-opacity="1" stop-color="rgb(89.932251%, 22.462463%, 51.246643%)" offset="0.40625"/><stop stop-opacity="1" stop-color="rgb(89.698792%, 22.413635%, 51.116943%)" offset="0.441406"/><stop stop-opacity="1" stop-color="rgb(89.480591%, 22.366333%, 50.994873%)" offset="0.472656"/><stop stop-opacity="1" stop-color="rgb(89.276123%, 22.322083%, 50.880432%)" offset="0.503906"/><stop stop-opacity="1" stop-color="rgb(89.083862%, 22.280884%, 50.773621%)" offset="0.53125"/><stop stop-opacity="1" stop-color="rgb(88.796997%, 22.219849%, 50.613403%)" offset="0.558594"/><stop stop-opacity="1" stop-color="rgb(88.441467%, 22.143555%, 50.416565%)" offset="0.613281"/><stop stop-opacity="1" stop-color="rgb(88.140869%, 22.079468%, 50.248718%)" offset="0.660156"/><stop stop-opacity="1" stop-color="rgb(87.88147%, 22.02301%, 50.10376%)" offset="0.699219"/><stop stop-opacity="1" stop-color="rgb(87.64801%, 21.974182%, 49.97406%)" offset="0.734375"/><stop stop-opacity="1" stop-color="rgb(87.443542%, 21.929932%, 49.859619%)" offset="0.765625"/><stop stop-opacity="1" stop-color="rgb(87.17041%, 21.871948%, 49.707031%)" offset="0.792969"/><stop stop-opacity="1" stop-color="rgb(86.856079%, 21.803284%, 49.533081%)" offset="0.84375"/><stop stop-opacity="1" stop-color="rgb(86.624146%, 21.754456%, 49.403381%)" offset="0.882812"/><stop stop-opacity="1" stop-color="rgb(86.376953%, 21.70105%, 49.266052%)" offset="0.910156"/><stop stop-opacity="1" stop-color="rgb(86.062622%, 21.633911%, 49.090576%)" offset="0.953125"/><stop stop-opacity="1" stop-color="rgb(85.899353%, 21.598816%, 48.999023%)" offset="1"/></radialGradient></defs><g clip-path="url(#b4e29135ec)"><g clip-path="url(#31a1f2d66e)"><path fill="url(#50f4848bf3)" d="M 4.730469 8.457031 L 4.730469 15.347656 L 26.765625 15.347656 L 26.765625 8.457031 Z M 4.730469 8.457031 " fill-rule="nonzero"/></g></g><g clip-path="url(#2fcc967d23)"><g clip-path="url(#5c48f428f4)"><path fill="url(#bc6d214393)" d="M 3.789062 16.851562 L 7.355469 31.398438 L 32.339844 25.257812 L 28.773438 10.710938 Z M 3.789062 16.851562 " fill-rule="nonzero"/></g></g><g clip-path="url(#9f525c1c4d)"><g clip-path="url(#671d35988e)"><path fill="url(#4669a1dc86)" d="M 19.667969 20.671875 L 19.667969 26.566406 L 30.09375 26.566406 L 30.09375 20.671875 Z M 19.667969 20.671875 " fill-rule="nonzero"/></g></g><g clip-path="url(#4fdd51500d)"><g clip-path="url(#55b3d2b4b6)"><path fill="url(#ea35918fb7)" d="M 4.730469 9.027344 L 4.730469 19.8125 L 28.601562 19.8125 L 28.601562 9.027344 Z M 4.730469 9.027344 " fill-rule="nonzero"/></g></g><g clip-path="url(#3fabed2267)"><g clip-path="url(#7c63daf58f)"><path fill="url(#5cd9374eb9)" d="M 5.980469 14.273438 L 5.980469 20.445312 L 28.589844 20.445312 L 28.589844 14.273438 Z M 5.980469 14.273438 " fill-rule="nonzero"/></g></g><path fill="#37c4ee" d="M 19.765625 23.183594 C 25.101562 21.882812 30.144531 20.65625 30.144531 20.65625 L 29.082031 16.3125 L 24.140625 17.195312 C 23.132812 19.765625 21.601562 21.847656 19.765625 23.183594 Z M 19.765625 23.183594 " fill-opacity="0.4" fill-rule="nonzero"/><path fill="#f9c02e" d="M 24.78125 15.210938 C 27.050781 14.667969 28.585938 14.300781 28.589844 14.316406 C 28.601562 14.371094 27.296875 9.035156 27.296875 9.035156 L 25.402344 9.566406 C 25.671875 11.113281 25.566406 13.335938 24.78125 15.210938 Z M 24.78125 15.210938 " fill-opacity="1" fill-rule="nonzero"/><g clip-path="url(#6320f1ed3f)"><g clip-path="url(#2671192256)"><path fill="url(#0a2a01e2f8)" d="M 0.714844 2.066406 L 4.667969 18.1875 L 29.742188 12.027344 L 25.789062 -4.09375 Z M 0.714844 2.066406 " fill-rule="nonzero"/></g></g><g fill="#000000" fill-opacity="1"><g transform="translate(31.807979, 20.270001)"><g><path d="M 8.6875 -3.75 C 8.6875 -4.300781 8.488281 -4.726562 8.09375 -5.03125 C 7.707031 -5.332031 7.003906 -5.644531 5.984375 -5.96875 C 4.960938 -6.300781 4.148438 -6.628906 3.546875 -6.953125 C 1.929688 -7.828125 1.125 -9.007812 1.125 -10.5 C 1.125 -11.269531 1.335938 -11.957031 1.765625 -12.5625 C 2.203125 -13.164062 2.828125 -13.640625 3.640625 -13.984375 C 4.460938 -14.328125 5.378906 -14.5 6.390625 -14.5 C 7.410156 -14.5 8.316406 -14.3125 9.109375 -13.9375 C 9.910156 -13.570312 10.53125 -13.050781 10.96875 -12.375 C 11.414062 -11.695312 11.640625 -10.929688 11.640625 -10.078125 L 8.703125 -10.078125 C 8.703125 -10.734375 8.492188 -11.238281 8.078125 -11.59375 C 7.671875 -11.957031 7.09375 -12.140625 6.34375 -12.140625 C 5.625 -12.140625 5.0625 -11.988281 4.65625 -11.6875 C 4.257812 -11.382812 4.0625 -10.984375 4.0625 -10.484375 C 4.0625 -10.023438 4.296875 -9.632812 4.765625 -9.3125 C 5.234375 -9 5.921875 -8.707031 6.828125 -8.4375 C 8.503906 -7.925781 9.722656 -7.296875 10.484375 -6.546875 C 11.253906 -5.804688 11.640625 -4.878906 11.640625 -3.765625 C 11.640625 -2.535156 11.171875 -1.566406 10.234375 -0.859375 C 9.304688 -0.148438 8.046875 0.203125 6.453125 0.203125 C 5.359375 0.203125 4.359375 0 3.453125 -0.40625 C 2.546875 -0.8125 1.851562 -1.363281 1.375 -2.0625 C 0.90625 -2.757812 0.671875 -3.570312 0.671875 -4.5 L 3.640625 -4.5 C 3.640625 -2.914062 4.578125 -2.125 6.453125 -2.125 C 7.160156 -2.125 7.707031 -2.265625 8.09375 -2.546875 C 8.488281 -2.835938 8.6875 -3.238281 8.6875 -3.75 Z M 8.6875 -3.75 "/></g></g></g><g fill="#000000" fill-opacity="1"><g transform="translate(44.168315, 20.270001)"><g><path d="M 3.859375 -9.46875 C 4.609375 -10.375 5.554688 -10.828125 6.703125 -10.828125 C 9.003906 -10.828125 10.171875 -9.484375 10.203125 -6.796875 L 10.203125 0 L 7.359375 0 L 7.359375 -6.71875 C 7.359375 -7.332031 7.226562 -7.785156 6.96875 -8.078125 C 6.707031 -8.367188 6.273438 -8.515625 5.671875 -8.515625 C 4.835938 -8.515625 4.234375 -8.191406 3.859375 -7.546875 L 3.859375 0 L 1.015625 0 L 1.015625 -15.078125 L 3.859375 -15.078125 Z M 3.859375 -9.46875 "/></g></g></g><g fill="#000000" fill-opacity="1"><g transform="translate(55.419263, 20.270001)"><g><path d="M 0.640625 -5.40625 C 0.640625 -6.457031 0.84375 -7.394531 1.25 -8.21875 C 1.65625 -9.050781 2.238281 -9.691406 3 -10.140625 C 3.769531 -10.597656 4.660156 -10.828125 5.671875 -10.828125 C 7.097656 -10.828125 8.265625 -10.382812 9.171875 -9.5 C 10.078125 -8.625 10.582031 -7.4375 10.6875 -5.9375 L 10.71875 -5.203125 C 10.71875 -3.578125 10.257812 -2.269531 9.34375 -1.28125 C 8.4375 -0.289062 7.21875 0.203125 5.6875 0.203125 C 4.15625 0.203125 2.929688 -0.285156 2.015625 -1.265625 C 1.097656 -2.253906 0.640625 -3.59375 0.640625 -5.28125 Z M 3.484375 -5.203125 C 3.484375 -4.191406 3.671875 -3.421875 4.046875 -2.890625 C 4.429688 -2.359375 4.976562 -2.09375 5.6875 -2.09375 C 6.375 -2.09375 6.910156 -2.351562 7.296875 -2.875 C 7.679688 -3.40625 7.875 -4.25 7.875 -5.40625 C 7.875 -6.394531 7.679688 -7.160156 7.296875 -7.703125 C 6.910156 -8.242188 6.367188 -8.515625 5.671875 -8.515625 C 4.972656 -8.515625 4.429688 -8.242188 4.046875 -7.703125 C 3.671875 -7.171875 3.484375 -6.335938 3.484375 -5.203125 Z M 3.484375 -5.203125 "/></g></g></g><g fill="#000000" fill-opacity="1"><g transform="translate(66.788023, 20.270001)"><g><path d="M 10.65625 -5.21875 C 10.65625 -3.582031 10.28125 -2.269531 9.53125 -1.28125 C 8.789062 -0.289062 7.789062 0.203125 6.53125 0.203125 C 5.457031 0.203125 4.585938 -0.171875 3.921875 -0.921875 L 3.921875 4.078125 L 1.09375 4.078125 L 1.09375 -10.625 L 3.71875 -10.625 L 3.8125 -9.578125 C 4.5 -10.410156 5.398438 -10.828125 6.515625 -10.828125 C 7.816406 -10.828125 8.832031 -10.34375 9.5625 -9.375 C 10.289062 -8.40625 10.65625 -7.066406 10.65625 -5.359375 Z M 7.8125 -5.421875 C 7.8125 -6.410156 7.632812 -7.171875 7.28125 -7.703125 C 6.9375 -8.242188 6.429688 -8.515625 5.765625 -8.515625 C 4.867188 -8.515625 4.253906 -8.171875 3.921875 -7.484375 L 3.921875 -3.140625 C 4.273438 -2.441406 4.894531 -2.09375 5.78125 -2.09375 C 7.132812 -2.09375 7.8125 -3.203125 7.8125 -5.421875 Z M 7.8125 -5.421875 "/></g></g></g><g fill="#000000" fill-opacity="1"><g transform="translate(78.107695, 20.270001)"><g><path d="M 1.859375 0 L 1.859375 -8.546875 L 0.28125 -8.546875 L 0.28125 -10.625 L 1.859375 -10.625 L 1.859375 -11.53125 C 1.859375 -12.71875 2.203125 -13.640625 2.890625 -14.296875 C 3.578125 -14.953125 4.535156 -15.28125 5.765625 -15.28125 C 6.160156 -15.28125 6.640625 -15.21875 7.203125 -15.09375 L 7.171875 -12.890625 C 6.941406 -12.953125 6.65625 -12.984375 6.3125 -12.984375 C 5.25 -12.984375 4.71875 -12.484375 4.71875 -11.484375 L 4.71875 -10.625 L 6.828125 -10.625 L 6.828125 -8.546875 L 4.71875 -8.546875 L 4.71875 0 Z M 1.859375 0 "/></g></g></g><g fill="#000000" fill-opacity="1"><g transform="translate(85.3138, 20.270001)"><g><path d="M 5.0625 -4.015625 L 7.015625 -10.625 L 10.0625 -10.625 L 5.796875 1.65625 L 5.5625 2.203125 C 4.925781 3.597656 3.878906 4.296875 2.421875 4.296875 C 2.003906 4.296875 1.582031 4.234375 1.15625 4.109375 L 1.15625 1.953125 L 1.59375 1.96875 C 2.125 1.96875 2.519531 1.882812 2.78125 1.71875 C 3.050781 1.550781 3.265625 1.28125 3.421875 0.90625 L 3.75 0.03125 L 0.03125 -10.625 L 3.078125 -10.625 Z M 5.0625 -4.015625 "/></g></g></g></svg>